<svg xmlns="http://www.w3.org/2000/svg" xmlns:xlink="http://www.w3.org/1999/xlink" width="201.877" height="203.475" viewBox="0 0 201.877 203.475">
  <defs>
    <clipPath id="clip-path">
      <path id="Path_81" data-name="Path 81" d="M277.373,301.2c.5-7.312,6.423-10.021,12.564-3.967,1.669,1.647,1.221,3.844,1.748,6.156a8.67,8.67,0,0,1-.722,5.867c-1.445,2.782-4.494,2.167-5.491,5.715-.643,2.276-1.286,4.667-.723,6.972a1.488,1.488,0,0,1,0,.9,1.135,1.135,0,0,1-.354.412,7.5,7.5,0,0,1-6.336,1.084,10.9,10.9,0,0,1-4.2-1.683c-1.785-1.366-.983-1.893-.282-3.829,1.286-3.5,1.337-7.3,1.763-10.96C275.552,305.9,277.2,303.7,277.373,301.2Z" transform="translate(-272.771 -293.895)" fill="none"/>
    </clipPath>
  </defs>
  <g id="vyash" transform="translate(0 -0.006)">
    <path id="Path_50" data-name="Path 50" d="M171.842,543.318a3.5,3.5,0,0,0,.65,1.082c1.951,2.3,6.712,2.637,10.744,2.7,46.8.794,93.261,1.129,140.064.1,6.5-.142,13.077-.392,19.609-.473,5.867-.076,12.044.222,17.2-1.975a4.561,4.561,0,0,0,2.391-1.767c.607-1.262-.759-2.642-2.558-3.265a20.254,20.254,0,0,0-5.961-.723c-3.865-.1-8.114-.562-11.965-.326-3.5.213-6.929.874-10.52.992-8.085.26-16.126-.87-24.2-.907-46.233-.2-79.157,2.06-113.693.643-10.05-.411-11.09-3.213-19.508.378C172.322,540.556,171.433,541.95,171.842,543.318Z" transform="translate(-162.825 -346.378)" fill="#191d2c" opacity="0.29"/>
    <path id="Path_51" data-name="Path 51" d="M316.459,528.739h-42.4a4.862,4.862,0,0,1-4.862-4.87h0a4.862,4.862,0,0,1,4.862-4.87h42.4a4.862,4.862,0,0,1,4.862,4.87h0a4.862,4.862,0,0,1-4.862,4.87Z" transform="translate(-189.869 -347.722)" fill="#010101"/>
    <path id="Path_52" data-name="Path 52" d="M364.982,391.86c-.448.535-12.882,3.721-12.882,3.721" transform="translate(-212.874 -312.441)" fill="none" stroke="#010101" stroke-linecap="round" stroke-miterlimit="10" stroke-width="6"/>
    <path id="Path_53" data-name="Path 53" d="M361.128,394.5l9.024-2.168c2.406-.578,1.575-5.2-.824-4.624l-9.031,2.168C357.9,390.456,358.722,395.08,361.128,394.5Z" transform="translate(-214.749 -311.276)" fill="#010101"/>
    <path id="Path_54" data-name="Path 54" d="M278,326.089a.874.874,0,0,0-.419-1.322,9.515,9.515,0,0,0-4.4-.549l-1.9.065a2.341,2.341,0,0,0,.542,1.618,8.584,8.584,0,0,0,1.142,1.5,2.623,2.623,0,0,0,2.811.889,4.01,4.01,0,0,0,2.225-2.2Z" transform="translate(-190.445 -293.654)" fill="#231f20"/>
    <path id="Path_55" data-name="Path 55" d="M326.029,496.476a29.173,29.173,0,0,1-.318-4.2c0-1.712.036-3.432.065-5.144-2.738-.4-5.231.629-8.106.462.094.556.173,5.917.426,8.041.434,3.771,5.007,3.54,7.868,3.165a1.445,1.445,0,0,0,.629-.188,8.576,8.576,0,0,1-.564-2.139Z" transform="translate(-203.32 -338.853)" fill="#2e3192"/>
    <path id="Path_56" data-name="Path 56" d="M317.743,498.03c-.535,1.842-1.72,7.875.087,9.393a.961.961,0,0,0,.535.152c6.17.419,14.371.838,21.184,1.077a5.2,5.2,0,0,0-1.835-3.136,25.669,25.669,0,0,0-6.329-3.656c-2.68-1.25-4.545-3.1-7.622-3.613A32.861,32.861,0,0,0,317.743,498.03Z" transform="translate(-203.096 -341.889)" fill="#010101"/>
    <circle id="Ellipse_8" data-name="Ellipse 8" cx="26.552" cy="26.552" r="26.552" transform="translate(8.983 188.483) rotate(-76.93)" fill="#010101"/>
    <circle id="Ellipse_9" data-name="Ellipse 9" cx="13.272" cy="13.272" r="13.272" transform="translate(27.585 155.376)" fill="#fbb040"/>
    <circle id="Ellipse_10" data-name="Ellipse 10" cx="5.469" cy="5.469" r="5.469" transform="matrix(0.216, -0.976, 0.976, 0.216, 34.324, 172.788)" fill="#010101"/>
    <path id="Path_57" data-name="Path 57" d="M362.018,383.859a6.351,6.351,0,0,0-2.89-1.445,78.642,78.642,0,0,0-11.481-1.293c-1.712-.087-7.095-1.922-7.037,1.488.043,2.355,3.555,4.241,5.52,4.4s3.938-.513,5.643.347c1.344.672,2.261,2.211,3.75,2.391a10.319,10.319,0,0,0,2.457-.368c2.413-.311,3.056,3.771,5.2,3.179,1.091-.3,1.25-2.89,1.235-3.706A6.835,6.835,0,0,0,362.018,383.859Z" transform="translate(-209.685 -309.303)" fill="#8b5e3c"/>
    <circle id="Ellipse_11" data-name="Ellipse 11" cx="26.552" cy="26.552" r="26.552" transform="translate(132.226 154.613) rotate(-23.04)" fill="#010101"/>
    <circle id="Ellipse_12" data-name="Ellipse 12" cx="13.272" cy="13.272" r="13.272" transform="translate(153.792 155.376)" fill="#fbb040"/>
    <circle id="Ellipse_13" data-name="Ellipse 13" cx="5.469" cy="5.469" r="5.469" transform="translate(160.803 173.2) rotate(-80.8)" fill="#010101"/>
    <path id="Path_58" data-name="Path 58" d="M332,402.071c.455-.527,12.94-3.511,12.94-3.511" transform="translate(-207.296 -314.3)" fill="none" stroke="#010101" stroke-linecap="round" stroke-miterlimit="10" stroke-width="6"/>
    <path id="Path_59" data-name="Path 59" d="M241.06,500.5a37.772,37.772,0,0,0-75.14,0" transform="translate(-161.209 -333.19)" fill="#f15f60" stroke="#010101" stroke-miterlimit="10" stroke-width="1"/>
    <path id="Path_60" data-name="Path 60" d="M237.7,502.209a33.365,33.365,0,0,0-66.405,0" transform="translate(-162.699 -334.717)" fill="#f15f60" stroke="#010101" stroke-miterlimit="10" stroke-width="1"/>
    <line id="Line_3" data-name="Line 3" x2="9.696" y2="42.209" transform="translate(141.48 87.807)" fill="#a9dcda" stroke="#010101" stroke-linecap="round" stroke-miterlimit="10" stroke-width="14"/>
    <path id="Path_61" data-name="Path 61" d="M159.4,496.166s2.818-17.434,8.67-25.36,19.45-17.716,19.45-17.716l72.929-1.561L247.74,484.151a7.805,7.805,0,0,0,6.994,10.751l33.286.166c15.1.072,12.362-20.729,15.563-30.179a14,14,0,0,1,3.222-5.607c2.42-2.4,4.913-1.626,7.695-2.688a10.18,10.18,0,0,0,10.411,8.345c1.806-.123,3.9-.657,5.209.592a3.743,3.743,0,0,1,.975,2.045c.4,2.03.051,4.118.036,6.192-.036,3.952,2.377,6.329,4.761,9.19l-24.11,7.948L300.5,501.383a22.975,22.975,0,0,1-12.543,3.743H242.025a8.005,8.005,0,0,1-7.883-7.6v-.058Z" transform="translate(-159.4 -328.999)" fill="#5db1e3"/>
    <path id="Path_62" data-name="Path 62" d="M411.727,481.636c-5.253-10.166-17.672-15.173-29.391-11.307s-18.734,15.3-16.87,26.6Z" transform="translate(-216.5 -333.854)" fill="#a9dcda"/>
    <path id="Path_63" data-name="Path 63" d="M256.395,401.7a13.96,13.96,0,0,1,4.508-1.4,10.977,10.977,0,0,1,5.195.1c2.536.831,4.248,2.659,6.344,4.205,4.927,3.612,11.676,3.533,17.506,4.169,3.613.4,7.825.491,11.271,1.741,3.114,1.134,6.409,1.517,9.393,3.006a12.282,12.282,0,0,1,3.547,2.493,10.91,10.91,0,0,1,2.644,6.351,29.311,29.311,0,0,1-.34,6.972,182.793,182.793,0,0,1-3.8,19.8c-1.091,4.335-1.575,11.56-5.26,14.71-2.261,1.922-6.575,1.351-9.2.723-1.626-.39-2.587-.571-3.547-2.037a10.354,10.354,0,0,1-1.539-4.992,27.782,27.782,0,0,1,.9-7.536l1.994-9.147c.773-3.547,1.618-7.362.636-10.96-1.25-4.559-8.4-4.523-12.008-4.711-6.221-.325-12.413.491-18.619.723a64.8,64.8,0,0,1-7.008-.058c-1.886-.13-4.8-.065-6.452-1.091-3.193-2-2.832-8.244-2.6-11.387a20.294,20.294,0,0,1,1.12-5.968,10.953,10.953,0,0,1,5.31-5.708Z" transform="translate(-184.492 -314.71)" fill="#010101"/>
    <path id="Path_64" data-name="Path 64" d="M335.884,397.243l-9.06,2.023c-2.406.542-1.662,5.173.759,4.638l9.06-2.023C339.049,401.34,338.3,396.7,335.884,397.243Z" transform="translate(-205.451 -313.923)" fill="#010101"/>
    <path id="Path_65" data-name="Path 65" d="M359.471,400.515H353.93a5.383,5.383,0,0,1-5.39-5.383h0a5.383,5.383,0,0,1,5.39-5.383h5.556a5.383,5.383,0,0,1,5.39,5.383h0a5.383,5.383,0,0,1-5.4,5.383Z" transform="translate(-211.886 -311.855)" fill="#212121"/>
    <path id="Path_66" data-name="Path 66" d="M364,389.76v10.751a5.383,5.383,0,0,0,0-10.751Z" transform="translate(-216.176 -311.858)" fill="#d27228"/>
    <path id="Path_67" data-name="Path 67" d="M274.883,449.891H199.62A9.884,9.884,0,0,1,209.5,440h55.488a9.884,9.884,0,0,1,9.891,9.891Z" transform="translate(-170.561 -325.8)" fill="#010101"/>
    <path id="Path_68" data-name="Path 68" d="M312.216,488.4A48.152,48.152,0,0,0,302,487c.13.6.419,6.438.766,8.735.614,4.089,5.585,3.67,8.67,3.157l.34-.072A52.526,52.526,0,0,1,312.216,488.4Z" transform="translate(-198.971 -338.842)" fill="#00a651"/>
    <path id="Path_69" data-name="Path 69" d="M302.565,498.37c-.513,2.03-1.575,8.627.441,10.209a.809.809,0,0,0,.448.145l23.619.8a.643.643,0,0,0,.578-.961c-1.142-1.987-3.612-3.367-5.419-4.5a41.774,41.774,0,0,0-7.1-3.547,61.767,61.767,0,0,0-6.329-1.871C308.128,498.464,302.746,497.662,302.565,498.37Z" transform="translate(-198.922 -341.918)" fill="#231f20"/>
    <path id="Path_70" data-name="Path 70" d="M243.235,406.752a13.951,13.951,0,0,1,4.508-1.394,10.978,10.978,0,0,1,5.195.094c2.536.838,4.248,2.659,6.344,4.2,4.927,3.612,11.676,3.54,17.506,4.176,3.612.39,7.825.484,11.271,1.741,3.107,1.134,6.409,1.51,9.393,3.006A12.088,12.088,0,0,1,301,421.065a10.91,10.91,0,0,1,2.644,6.351,29.389,29.389,0,0,1-.34,6.979,182.663,182.663,0,0,1-3.829,19.8c-1.1,4.335-1.575,11.56-5.26,14.71-2.261,1.922-6.582,1.351-9.2.722-1.626-.383-2.587-.564-3.547-2.037a10.353,10.353,0,0,1-1.539-4.992,27.852,27.852,0,0,1,.932-7.543q1-4.573,1.987-9.14c.78-3.555,1.626-7.37.643-10.968-1.25-4.559-8.4-4.523-12.008-4.711-6.221-.325-12.413.5-18.626.723a64.653,64.653,0,0,1-7-.051c-1.886-.13-4.8-.065-6.452-1.1-3.193-1.994-2.832-8.244-2.6-11.387a20.381,20.381,0,0,1,1.12-5.968,10.953,10.953,0,0,1,5.31-5.7Z" transform="translate(-180.84 -316.112)" fill="#231f20"/>
    <path id="Path_71" data-name="Path 71" d="M317.7,363.278l-2.782-.094c-8.135-.332-14.869-3.165-18.785-10.577-2.074-3.916-3.562-8.237-6.5-11.56a8.1,8.1,0,0,0-7.463-3c-2.168.3-3.035,2.269-3.613,4.219-1.221,4.032-1.055,8.576-.6,12.723a36.773,36.773,0,0,0,4.162,14.233,5.513,5.513,0,0,0,3.136,2.168,81.554,81.554,0,0,0,13.157,3.743c3.75.607,7.507.181,11.213.881,4.176.795,8.54,2,12.788,2.1a8.374,8.374,0,0,0,6.987-3.049,7.938,7.938,0,0,0,2.334-3.706,5.238,5.238,0,0,0-1.358-4.335,9.392,9.392,0,0,0-3.981-2.471A30.308,30.308,0,0,0,317.7,363.278Z" transform="translate(-192.206 -297.486)" fill="#010101"/>
    <path id="Path_72" data-name="Path 72" d="M285.748,336.387a7.334,7.334,0,0,0-2.847-3.5c-.116,1.127-.253,2.247-.325,3.374a.528.528,0,0,1-.123.311,55.941,55.941,0,0,1,.614,12.189,91.245,91.245,0,0,1-1.864,13.728,107,107,0,0,1-3.121,12.08c-.722,2.167-2.167,4.154-2.2,6.5a4.718,4.718,0,0,0,2.269,4.19,5.194,5.194,0,0,0,4.118.108,10.158,10.158,0,0,0,5.26-4.718,21.01,21.01,0,0,0,2.167-6.806,46.76,46.76,0,0,0-.188-17.159C288.183,349.891,288.385,342.889,285.748,336.387Z" transform="translate(-191.722 -296.077)" fill="#231f20"/>
    <path id="Path_73" data-name="Path 73" d="M275.576,349.65a61.519,61.519,0,0,0-1.785-11.863.722.722,0,0,0-.867-.491l-1.445.282c-2.037-2.565-4.133,1.546-7.037,1.59A31.143,31.143,0,0,0,245.73,346.3a25.013,25.013,0,0,0-5.058,5.3c-4.183,6.127-4.465,14.067-3.93,21.466.181,2.456.4,4.92.542,7.355s-.484,4.545-.686,6.922c-.267,3.237-.181,6.539-.267,9.783,6.589-4.277,15.527-3.244,22.99-3.533a20.876,20.876,0,0,0,5.4-.686,8.5,8.5,0,0,0,2.218-1.069,6.018,6.018,0,0,0,2-2.167c.9-1.741.723-3.815.723-5.78-.173-6.344,1.445-12.42,2.926-18.525,1.308-5.325,3.417-9.812,2.933-15.368A.629.629,0,0,0,275.576,349.65Z" transform="translate(-180.748 -297.144)" fill="#414042"/>
    <path id="Path_74" data-name="Path 74" d="M233.489,350.3a36.176,36.176,0,0,0-5.722,15.042,18.164,18.164,0,0,0,.173,7.095,19.716,19.716,0,0,0,2.543,5.448,15.476,15.476,0,0,0,3.157,3.959,13.41,13.41,0,0,0,4.545,2.261,25.786,25.786,0,0,0,13.952.369,8.576,8.576,0,0,0,3.952-1.915c2.637-2.543,2.977-7.781,3.808-11.148q1.178-4.841,2.8-9.566c1.51-4.393,3.295-8.67,4.371-13.222s1.445-9.335.051-13.771c-.629-2.016-1.965-4.212-4.017-5.057-4.386-1.806-11.5,2.428-15.122,4.588C241.783,338.057,237.47,344.336,233.489,350.3Z" transform="translate(-178.297 -295.096)" fill="#231f20"/>
    <path id="Path_75" data-name="Path 75" d="M266.023,375.192c0-.137-1.965-1.221-2.233-1.445a15.341,15.341,0,0,1-1.727-1.893,11.213,11.213,0,0,1-2.081-5.4,20.461,20.461,0,0,1,1.012-8.28,2.377,2.377,0,0,1,.723-1.272c3.056-2.3,3.266,7.427,3.352,8.468C265.351,368.632,265.7,371.912,266.023,375.192Z" transform="translate(-187.292 -302.644)" fill="#231f20"/>
    <path id="Path_76" data-name="Path 76" d="M331.917,392.734a6.351,6.351,0,0,0-2.89-1.445,42.569,42.569,0,0,0-8.67-.665,3.418,3.418,0,0,0-1.445.238,3.612,3.612,0,0,0-1.4,1.575,2.89,2.89,0,0,0-.564,1.958,2.117,2.117,0,0,0,1.178,1.337c2.717,1.4,6.5-.809,8.93,1.366,1.568,1.445,1.055,4.53,3.331,5.267,2.594.845,3.54-1.575,3.873-3.613a6.712,6.712,0,0,0-2.341-6.018Z" transform="translate(-203.116 -312.094)" fill="#8b5e3c"/>
    <path id="Path_77" data-name="Path 77" d="M278.761,360.139l-.072-.2c-.831-2.261-.723-4.906-1.156-7.225-.686-3.88-1.127-8.67-3.3-12.087-1.243-1.929-1.163,3.165-3.389,2.507-2.435-.723-5.209-.723-7.261.968-2.579,2.124-2.89,5.917-2.717,9.255.462,7.644,2.818,17.615,7.167,24.038a5.209,5.209,0,0,0,3.222,1.893c2.449.592,4.877.686,7.276,1.214,3.136.686,6.242,1.517,9.393,2.276a27.9,27.9,0,0,0,8.179,1.156c2.124-.123,4.913-.831,6.358-2.543,1.185-1.409,1.936-4.7,1.228-6.416-.542-1.315-1.893-2.088-3.157-2.76a52.007,52.007,0,0,0-12.283-4,22.479,22.479,0,0,1-5.946-1.6C280.112,365.6,279.469,362.111,278.761,360.139Z" transform="translate(-187.545 -298.103)" fill="#231f20"/>
    <path id="Path_78" data-name="Path 78" d="M277.053,301.658a11.155,11.155,0,0,1,2.167-3.945c2.89-3.193,7.449-2.89,10.39,0,1.676,1.64,1.221,3.844,1.748,6.156a8.67,8.67,0,0,1-.722,5.867c-1.445,2.782-4.494,2.167-5.491,5.715a17.412,17.412,0,0,0-.3,9.5,1.5,1.5,0,0,1,.094.686,1.228,1.228,0,0,1-.325.6,4.844,4.844,0,0,1-5.13,1.026,14.241,14.241,0,0,1-4.6-3.042c-.224-.2-3.663-3.013-3.36-3.316,2.218-2.623,2.637-6.264,3.215-9.653a70.3,70.3,0,0,1,1.922-8.244C276.771,302.54,276.923,302.1,277.053,301.658Z" transform="translate(-190.511 -285.682)" fill="#8b5e3c"/>
    <path id="Path_79" data-name="Path 79" d="M284.926,308.333a4.024,4.024,0,0,1-1.445,3.757c-.535.462-1.077.072-1.748-.152-2.536-.816-1.806-4.335-.21-5.57a1.7,1.7,0,0,1,1.178-.448,1.618,1.618,0,0,1,.723.282,3.309,3.309,0,0,1,1.5,2.131Z" transform="translate(-192.886 -288.593)" fill="#8b5e3c"/>
    <g id="Group_11" data-name="Group 11" transform="translate(81.911 8.639)" clip-path="url(#clip-path)">
      <path id="Path_80" data-name="Path 80" d="M293.794,318a4.5,4.5,0,0,1-2.319.657,9.677,9.677,0,0,1-2.408-.3,2.941,2.941,0,0,0,1.4,1.814,3.829,3.829,0,0,0,2.168.477" transform="translate(-277.294 -300.584)" fill="#292622"/>
    </g>
    <path id="Path_82" data-name="Path 82" d="M296.048,306.81a2.456,2.456,0,0,0,1.64,2.493" transform="translate(-197.318 -288.84)" fill="#292622"/>
    <path id="Path_83" data-name="Path 83" d="M296.842,311.9a1.915,1.915,0,0,1-1.864,1.322,2.023,2.023,0,0,1-1.7-1.582" transform="translate(-196.551 -290.18)" fill="#fff"/>
    <path id="Path_84" data-name="Path 84" d="M264.63,379.18c1.192,2.767,1.727,6.177,3.482,8.634a5.433,5.433,0,0,0,1.214,1.192c4,3.027,9.393,1.662,13.93,3.193l2.6.881" transform="translate(-188.601 -308.922)" fill="none" stroke="#231f20" stroke-miterlimit="10" stroke-width="0.75"/>
    <path id="Path_85" data-name="Path 85" d="M279.19,342c2.088,2.363,2.63,5.672,3.092,8.786l1,6.828c.347,2.348.788,10.115,8.258,10.751" transform="translate(-192.641 -298.605)" fill="none" stroke="#231f20" stroke-miterlimit="10" stroke-width="0.75"/>
    <path id="Path_86" data-name="Path 86" d="M270.564,324.35l4.877,3.49a8.908,8.908,0,0,1,4.747,9.132c0,.665,0,1.445-.6,1.785-.723.4-1.539-.246-2.124-.816a25.512,25.512,0,0,0-3.844-3.1c-1.358-.889-3.4-1.481-4.494-2.688C267.226,330.072,269.972,326.655,270.564,324.35Z" transform="translate(-189.666 -293.707)" fill="#231f20"/>
    <path id="Path_87" data-name="Path 87" d="M290.972,334.95c.051-.434.108-.867.159-1.293a3.078,3.078,0,0,0-.325-2.334c-.426-.535-1.084-1.972-1.77-2.023.051,0-.079,2.168-.079,2.355a11.7,11.7,0,0,1-.181,1.994,11.293,11.293,0,0,0-.267,2.738,20.715,20.715,0,0,0,.881,4.234c.116.383.332,1.163.8,1.272.65.145.723-.658.679-1.1A23.632,23.632,0,0,1,290.972,334.95Z" transform="translate(-195.226 -295.081)" fill="#231f20"/>
    <path id="Path_88" data-name="Path 88" d="M274.717,306.593a3.317,3.317,0,0,1-.2.939c-.679,1.792-2.8,2.543-4.7,2.767a7.16,7.16,0,0,1-3.786-.376c-1.445-.643-2.933-2.254-2.652-3.909a5.563,5.563,0,0,1,1.192-2.608,4.126,4.126,0,0,1-3.519-3.259,5.4,5.4,0,0,1,1.445-4.718,7.839,7.839,0,0,1,4.537-2.2,3.526,3.526,0,0,1-2.457-3.165c-.181-4.7,7.124-4.465,8.88-1.149a6.279,6.279,0,0,1,1.9-5.7,5.1,5.1,0,0,1,5.823-.636,4.335,4.335,0,0,1,1.64,5.448c2.89-1.712,6.582-2.514,9.494-.889a5.78,5.78,0,0,1,2.825,5.563c-.332,2.261-2.89,3.533-4.978,3.4a12.43,12.43,0,0,1-5.281-1.972c.564.867,1.142,1.915.78,2.89a2.5,2.5,0,0,1-1.286,1.264,6.105,6.105,0,0,1-3.865.347,18.663,18.663,0,0,1-3.706-1.344,8.425,8.425,0,0,1,1.936,2.695,2.556,2.556,0,0,1-3.193,3.591,7.594,7.594,0,0,1-2.457-1.38A7.325,7.325,0,0,1,274.717,306.593Z" transform="translate(-187.583 -281.94)" fill="#010101"/>
    <line id="Line_4" data-name="Line 4" x2="3.974" y2="17.311" transform="translate(147.903 116.751)" fill="none" stroke="#a9dcda" stroke-miterlimit="10" stroke-width="19"/>
  </g>
</svg>
