<svg xmlns="http://www.w3.org/2000/svg" width="60.222" height="24.369" viewBox="0 0 60.222 24.369">
  <g id="Felyx_Logo" data-name="Felyx Logo" transform="translate(-131 -218.045)">
    <path id="Path_1" data-name="Path 1" d="M1.486,0A1.524,1.524,0,0,0,0,1.533,1.508,1.508,0,0,0,1.486,3.049a1.523,1.523,0,0,0,1.5-1.515A1.539,1.539,0,0,0,1.486,0" transform="translate(184.329 234.792)" fill="#044b29"/>
    <path id="Path_2" data-name="Path 2" d="M9.914,2.439a5.549,5.549,0,0,1,.906,2.409,5.615,5.615,0,0,1-.692,3.567c-.19.335-.42.646-.634.966q-.5.741-1,1.48L6.661,13.579q-.422.626-.844,1.251a.818.818,0,0,1-.112.136.364.364,0,0,1-.536,0,2.338,2.338,0,0,1-.238-.316c-.15-.218-.3-.439-.445-.658Q3.6,12.668,2.7,11.345c-.392-.581-.788-1.16-1.178-1.743C1.245,9.181.953,8.766.7,8.328a5.213,5.213,0,0,1-.635-1.9A5.578,5.578,0,0,1,.015,5.192,5.7,5.7,0,0,1,1.443,1.81,5.483,5.483,0,0,1,2.754.738,5.274,5.274,0,0,1,4.685.062c.248-.036.5-.042.75-.062A5.293,5.293,0,0,1,7.663.5,5.428,5.428,0,0,1,9.914,2.439ZM8.9,2.49a.19.19,0,0,1-.189.17l-1.559.006a.181.181,0,0,0-.164.107l-.33.717c.229.171.184.733.153,1.129-.009.115-.017.216-.017.289l.3.108a.191.191,0,0,1,.124.172s.064,2.07.091,2.136a3.5,3.5,0,0,1,.275,1.667,3.6,3.6,0,0,1-.954,1.917.092.092,0,0,1-.168-.049c0-.307.009-.6.017-.866.04-1.316.065-2.15-1.019-2.168-1.085.017-1.059.852-1.019,2.168.008.27.017.559.017.866a.092.092,0,0,1-.168.049,3.6,3.6,0,0,1-.954-1.917,3.494,3.494,0,0,1,.275-1.667c.027-.066.091-2.136.091-2.136a.191.191,0,0,1,.124-.172l.3-.108c0-.074-.008-.174-.017-.289-.032-.4-.076-.959.153-1.13l-.33-.717a.18.18,0,0,0-.162-.107L2.238,2.659a.164.164,0,0,1-.16-.17v-.2a.142.142,0,0,1,.14-.146L4,2.145a.3.3,0,0,1,.22.095l.629.673a3.512,3.512,0,0,1,.614-.07H5.49a4.656,4.656,0,0,1,.6.07l.625-.673a.3.3,0,0,1,.221-.095l1.8,0a.167.167,0,0,1,.166.146ZM5.49,2.841h0Zm-.023,0h0Zm.067,9.007H5.446a.626.626,0,0,1-.621-.626L4.8,8.852a.626.626,0,0,1,.608-.64h.088a.625.625,0,0,1,.621.626l.026,2.371A.627.627,0,0,1,5.534,11.847Z" transform="translate(180.352 218.045)" fill="#044b29" fill-rule="evenodd"/>
    <path id="Path_3" data-name="Path 3" d="M1,1.678a.571.571,0,0,1-.538-.6A.571.571,0,0,1,1,.478a.571.571,0,0,1,.538.6.571.571,0,0,1-.538.6M.948,0C.575,0-.161.069.032,1.669.256,3.53.074,4.693.34,4.544a2,2,0,0,1,1.3.007c.171.138.1-1.054.28-2.881C2.078,0,1.321,0,.948,0" transform="translate(184.827 221.074)" fill="#044b29"/>
    <path id="Path_4" data-name="Path 4" d="M8.367.746A6.751,6.751,0,0,0,5.472,0c-3.317,0-3.7,2.3-3.7,4.036v.671H.183A.187.187,0,0,0,0,4.9V6.6a.187.187,0,0,0,.183.19H1.771v6.425c0,.435-.124.526-.473.564l-.638.06a.186.186,0,0,0-.166.189v1.535a.187.187,0,0,0,.183.19H6.045a.187.187,0,0,0,.183-.19V13.943a.186.186,0,0,0-.174-.19L4.5,13.676V6.788H7.363a.187.187,0,0,0,.183-.19V4.9a.187.187,0,0,0-.183-.19H4.5V3.843A2.043,2.043,0,0,1,4.792,2.6a1.157,1.157,0,0,1,.99-.393,4.447,4.447,0,0,1,1.849.5.177.177,0,0,0,.15.007.187.187,0,0,0,.1-.111L8.451.978A.194.194,0,0,0,8.367.746" transform="translate(131 222.09)" fill="#044b29"/>
    <path id="Path_5" data-name="Path 5" d="M8.053,8.49a.188.188,0,0,1,.121.1l.762,1.655a.193.193,0,0,1-.05.227,6.289,6.289,0,0,1-3.772,1.212C1.768,11.686,0,9.759,0,6.112A6.86,6.86,0,0,1,1.338,1.846,4.923,4.923,0,0,1,5.346,0,3.942,3.942,0,0,1,7.928.809a2.921,2.921,0,0,1,.994,2.319A3.42,3.42,0,0,1,6.794,6.421a9.563,9.563,0,0,1-3.867.734,2.619,2.619,0,0,0,.622,1.568A2.36,2.36,0,0,0,5.367,9.4,4.293,4.293,0,0,0,7.9,8.518.184.184,0,0,1,8.053,8.49ZM6.336,3.17A.986.986,0,0,0,5.209,2.111c-1.6,0-2.269,1.568-2.364,2.953a6.911,6.911,0,0,0,2.3-.4A1.607,1.607,0,0,0,6.336,3.17Z" transform="translate(139.473 226.155)" fill="#044b29" fill-rule="evenodd"/>
    <path id="Path_6" data-name="Path 6" d="M4.817,13.725l-.964-.055V.192A.185.185,0,0,0,3.678,0H.215A.185.185,0,0,0,.04.192V1.9a.186.186,0,0,0,.166.192l.652.041c.282.021.372.112.372.377V13.2c0,.423-.141.512-.456.55l-.613.061A.186.186,0,0,0,0,14v1.556a.185.185,0,0,0,.176.192H4.808a.185.185,0,0,0,.176-.192V13.917a.186.186,0,0,0-.167-.192" transform="translate(149.441 222.09)" fill="#044b29"/>
    <path id="Path_7" data-name="Path 7" d="M10.261,0H6.6a.191.191,0,0,0-.189.191V1.866a.191.191,0,0,0,.178.191l.639.04h.009c.294,0,.392.073.392.5V6.5a1.964,1.964,0,0,1-.541,1.387,2.175,2.175,0,0,1-1.6.6c-1.2,0-1.438-.793-1.438-2.163V.191A.191.191,0,0,0,3.854,0H.189A.191.191,0,0,0,0,.191V1.866a.191.191,0,0,0,.178.191l.639.04c.34.02.4.138.4.46V6.891a4.215,4.215,0,0,0,.892,2.916,3.307,3.307,0,0,0,2.561.957,4.758,4.758,0,0,0,1.971-.418,4.021,4.021,0,0,0,1.347-.994v1.225c0,2.036-.855,3.025-2.613,3.025A4.143,4.143,0,0,1,3.909,13.4c-.31-.122-.4-.266-.4-.642v-.983a.193.193,0,0,0-.061-.141.188.188,0,0,0-.144-.05l-1.934.164a.192.192,0,0,0-.174.191v2.923a.192.192,0,0,0,.106.172,10.927,10.927,0,0,0,4.051.713c3.43,0,5.1-1.69,5.1-5.166V.191A.191.191,0,0,0,10.261,0" transform="translate(155.427 226.671)" fill="#044b29"/>
    <path id="Path_8" data-name="Path 8" d="M10.8,9.176l-.984-.118L7.129,5.429,9.4,2.508c.282-.353.464-.471.751-.488l.594-.04a.191.191,0,0,0,.176-.192V.192A.191.191,0,0,0,10.733,0H6.508A.191.191,0,0,0,6.32.192V1.832a.191.191,0,0,0,.175.192l.567.042L5.7,3.868,4.6,2.374a.239.239,0,0,1-.054-.229.228.228,0,0,1,.206-.1L5.321,2A.191.191,0,0,0,5.5,1.81V.192A.191.191,0,0,0,5.308,0H.444A.191.191,0,0,0,.255.192V1.768a.191.191,0,0,0,.167.191l.982.118L3.922,5.617,1.542,8.648a1,1,0,0,1-.756.467l-.616.061A.19.19,0,0,0,0,9.367v1.619a.191.191,0,0,0,.189.192H4.52a.191.191,0,0,0,.189-.192V9.347a.191.191,0,0,0-.177-.192l-.683-.044L5.33,7.241,6.518,8.826c.086.116.107.208.091.244s-.072.061-.2.067l-.616.04a.191.191,0,0,0-.177.192v1.617a.191.191,0,0,0,.189.192h4.97a.191.191,0,0,0,.189-.192V9.367a.191.191,0,0,0-.167-.191" transform="translate(167.383 226.663)" fill="#044b29"/>
  </g>
</svg>
