<svg xmlns="http://www.w3.org/2000/svg" width="135.809" height="54.955" viewBox="0 0 87 44" class="w-24">
	<g fill="none">
		<path d="M15.668 34.784c0 6.595-2.48 9.136-7.803 9.136C2.48 43.92 0 41.379 0 34.784V9.136C0 2.54 2.541 0 7.865 0s7.803 2.541 7.803 9.136v8.268H9.136V8.59c0-1.755-.365-2.42-1.28-2.42-.967 0-1.332.665-1.332 2.42v26.74c0 1.755.365 2.42 1.333 2.42.906 0 1.279-.665 1.279-2.42v-8.063h6.532v7.517zM40.093 6.533h5.08V.363H33.559v17.043h6.535zm0 20.734h-6.535v16.29h11.616v-6.172h-5.081zm21.693 7.517c0 6.595-2.481 9.136-7.805 9.136-5.383 0-7.863-2.541-7.863-9.136V9.136C46.118 2.54 48.658 0 53.981 0c5.324 0 7.805 2.541 7.805 9.136v8.268h-6.534V8.59c0-1.755-.363-2.42-1.28-2.42-.967 0-1.33.665-1.33 2.42v26.74c0 1.755.363 2.42 1.33 2.42.909 0 1.28-.665 1.28-2.42v-8.063h6.534v7.517zm7.883-10.101v18.875h-6.535V.362h6.535v19.602h.24L72.814.362h6.17l-3.509 20.69 3.51 22.506h-6.17L69.91 24.683zm16.706 9.014v9.86h-6.532v-9.86zM17.157.362h6.533v17.041h-6.533zm8.295 0h6.533v17.041h-6.533zm0 26.905h6.533v16.291h-6.533zm-8.295 0h6.533v16.291h-6.533z" fill="black"></path>
		<path fill="#9B41FF" d="M55.258 17.404v9.863h-39.59v-9.863z"></path>
	</g>
</svg>